<?xml version="1.0" encoding="UTF-8" standalone="no"?>
<!-- Created with Inkscape (http://www.inkscape.org/) -->

<svg
   width="800"
   height="160"
   viewBox="0 0 800 160"
   id="svg2"
   version="1.1"
   inkscape:version="1.4.2 (ebf0e940, 2025-05-08)"
   sodipodi:docname="VeraGrid_banner.svg"
   inkscape:export-filename="GridCal_banner.png"
   inkscape:export-xdpi="90"
   inkscape:export-ydpi="90"
   xml:space="preserve"
   xmlns:inkscape="http://www.inkscape.org/namespaces/inkscape"
   xmlns:sodipodi="http://sodipodi.sourceforge.net/DTD/sodipodi-0.dtd"
   xmlns:xlink="http://www.w3.org/1999/xlink"
   xmlns="http://www.w3.org/2000/svg"
   xmlns:svg="http://www.w3.org/2000/svg"
   xmlns:rdf="http://www.w3.org/1999/02/22-rdf-syntax-ns#"
   xmlns:cc="http://creativecommons.org/ns#"
   xmlns:dc="http://purl.org/dc/elements/1.1/"><defs
     id="defs4"><linearGradient
       id="linearGradient9"
       inkscape:collect="always"><stop
         id="stop6"
         offset="0"
         style="stop-color:#3ecb73;stop-opacity:1;" /><stop
         id="stop10"
         offset="0.5"
         style="stop-color:#36c3aa;stop-opacity:1;" /><stop
         id="stop9"
         offset="1"
         style="stop-color:#205a70;stop-opacity:1;" /></linearGradient><linearGradient
       inkscape:collect="always"
       xlink:href="#linearGradient9"
       id="linearGradient6292-3"
       x1="-8.5722263e-08"
       y1="54.050343"
       x2="510.5929"
       y2="54.050343"
       gradientUnits="userSpaceOnUse" /><linearGradient
       id="linearGradient3067"
       inkscape:collect="always"><stop
         id="stop3063"
         offset="0"
         style="stop-color:#4895ef;stop-opacity:1" /><stop
         style="stop-color:#3f37c9;stop-opacity:1"
         offset="0.22149941"
         id="stop3069" /><stop
         id="stop3071"
         offset="0.46591431"
         style="stop-color:#480ca8;stop-opacity:1" /><stop
         id="stop3065"
         offset="1"
         style="stop-color:#f72585;stop-opacity:1" /></linearGradient><filter
       inkscape:collect="always"
       style="color-interpolation-filters:sRGB"
       id="filter1411-2-5"
       x="-0.00027444115"
       width="1.0005489"
       y="-0.0015005203"
       height="1.003001"><feGaussianBlur
         inkscape:collect="always"
         stdDeviation="0.06752225"
         id="feGaussianBlur1413-7-6" /></filter><linearGradient
       gradientTransform="translate(9.1973715e-7,4.7105917e-6)"
       inkscape:collect="always"
       xlink:href="#linearGradient3067"
       id="linearGradient904"
       x1="-8.5722263e-08"
       y1="54.050343"
       x2="510.5929"
       y2="54.050343"
       gradientUnits="userSpaceOnUse" /></defs><sodipodi:namedview
     id="base"
     pagecolor="#ffffff"
     bordercolor="#666666"
     borderopacity="1.0"
     inkscape:pageopacity="0.0"
     inkscape:pageshadow="2"
     inkscape:zoom="1.2175"
     inkscape:cx="400.41068"
     inkscape:cy="90.759754"
     inkscape:document-units="px"
     inkscape:current-layer="g3531"
     showgrid="false"
     units="px"
     inkscape:window-width="1464"
     inkscape:window-height="916"
     inkscape:window-x="55"
     inkscape:window-y="38"
     inkscape:window-maximized="1"
     inkscape:showpageshadow="2"
     inkscape:pagecheckerboard="0"
     inkscape:deskcolor="#d1d1d1" /><metadata
     id="metadata7"><rdf:RDF><cc:Work
         rdf:about=""><dc:format>image/svg+xml</dc:format><dc:type
           rdf:resource="http://purl.org/dc/dcmitype/StillImage" /><dc:title /></cc:Work></rdf:RDF></metadata><g
     inkscape:label="Capa 1"
     inkscape:groupmode="layer"
     id="layer1"
     transform="translate(0,-892.36216)"><g
       id="g2995"
       transform="matrix(1.9896162,0,0,1.9896162,1.9293043,-1039.8505)"><path
         sodipodi:nodetypes="cssssssssssssaacc"
         inkscape:connector-curvature="0"
         id="path4166"
         d="m 119.03422,806.30431 c 0,0 3.14503,-58.05357 8.3719,-58.13814 5.41033,-0.0876 4.48761,69.28884 10.23232,69.30064 4.25633,0.012 4.775,-54.2535 9.36856,-54.3964 3.23488,-0.1006 5.25729,44.0899 9.58481,44.0105 3.04152,-0.055 5.97362,-35.0071 10.5437,-35.0615 3.2803,-0.039 5.67698,31.7226 9.83757,31.6272 3.4935,-0.08 7.18339,-26.0964 10.67658,-25.9814 3.0362,0.1 4.45181,20.9045 8.19341,20.9317 2.86307,0.021 5.71232,-16.6483 9.30211,-16.7439 2.59171,-0.069 3.57657,11.6255 6.31214,11.5613 1.91665,-0.045 3.57734,-7.4153 6.44504,-7.3089 2.02074,0.075 3.32708,2.8881 5.31549,2.9236 2.59306,0.047 5.11579,-0.9663 7.70746,-1.0631 2.83848,-0.1057 5.66571,0.4429 8.50478,0.5315 2.30226,0.072 6.91014,0 6.91014,0 l 159.9374,-0.067"
         style="fill:none;stroke:#00b488;stroke-width:1.50782847;stroke-linecap:round;stroke-linejoin:miter;stroke-miterlimit:4;stroke-dasharray:none;stroke-opacity:1" /><text
         id="text4136"
         y="797.05798"
         x="5.1001863"
         style="font-style:normal;font-variant:normal;font-weight:normal;font-stretch:normal;line-height:0%;font-family:'URW Gothic L';-inkscape-font-specification:'URW Gothic L';letter-spacing:0px;word-spacing:0px;fill:#00b488;fill-opacity:1;stroke:none"
         xml:space="preserve"><tspan
           style="font-style:normal;font-variant:normal;font-weight:normal;font-stretch:normal;font-size:28.5686px;line-height:1.25;font-family:'URW Gothic L';-inkscape-font-specification:'URW Gothic L';fill:#00b488;fill-opacity:1"
           y="797.05798"
           x="5.1001863"
           id="tspan4138"
           sodipodi:role="line">GridCal</tspan></text><g
         transform="matrix(0.76290999,0,0,0.72049628,118.84033,105.95318)"
         id="g3000"><text
           xml:space="preserve"
           style="font-style:normal;font-weight:normal;line-height:0%;font-family:sans-serif;letter-spacing:0px;word-spacing:0px;fill:#000000;fill-opacity:1;stroke:none"
           x="144"
           y="935.86163"
           id="text2992"><tspan
             sodipodi:role="line"
             id="tspan2994"
             x="144"
             y="935.86163"
             style="font-style:normal;font-variant:normal;font-stretch:normal;font-size:20px;line-height:1.25;font-family:'URW Gothic L';-inkscape-font-specification:'URW Gothic L Book'">Reasearch oriented</tspan></text><text
           xml:space="preserve"
           style="font-style:normal;font-weight:normal;line-height:0%;font-family:sans-serif;letter-spacing:0px;word-spacing:0px;fill:#000000;fill-opacity:1;stroke:none"
           x="144"
           y="969.74103"
           id="text2996"><tspan
             sodipodi:role="line"
             id="tspan2998"
             x="144"
             y="969.74103"
             style="font-style:normal;font-variant:normal;font-stretch:normal;font-size:20px;line-height:1.25;font-family:'URW Gothic L';-inkscape-font-specification:'URW Gothic L Book'">Power systems software</tspan></text></g><g
         id="g3518"
         transform="matrix(1.5657766,0,0,1.5657766,469.79667,400.97569)"><g
           id="g3531"
           transform="translate(37.62451)"><text
             transform="matrix(0.26571168,0,0,0.26571168,-329.12758,375.96518)"
             xml:space="preserve"
             style="font-style:normal;font-variant:normal;font-weight:normal;font-stretch:normal;font-size:139.37px;line-height:1.25;font-family:Sawasdee;-inkscape-font-specification:Sawasdee;letter-spacing:0px;word-spacing:0px;fill:url(#linearGradient6292-3);fill-opacity:1;stroke:none;stroke-width:3.48424;stroke-linecap:butt;stroke-linejoin:round;filter:url(#filter1411-2-5)"
             x="-5.3939223"
             y="105.5474"
             id="text828-1-7-22-2"><tspan
               sodipodi:role="line"
               id="tspan826-8-9-8-9"
               x="-5.3939223"
               y="105.5474"
               style="font-style:normal;font-variant:normal;font-weight:normal;font-stretch:normal;font-family:'URW Gothic L';-inkscape-font-specification:'URW Gothic L';fill:url(#linearGradient6292-3);fill-opacity:1;stroke-width:3.48424;stroke-linecap:butt;stroke-linejoin:round">VeraGrid</tspan></text><path
             style="fill:none;fill-opacity:1;fill-rule:evenodd;stroke:#205a70;stroke-width:1.91953;stroke-linecap:round;stroke-linejoin:miter;stroke-miterlimit:4;stroke-dasharray:none;stroke-opacity:1"
             d="m -163.67777,403.44291 c 0,0 1.64476,-35.11554 4.63694,-35.16736 3.09721,-0.0537 2.49116,41.93375 5.7798,41.94101 2.4366,0.007 2.73352,-33.22569 5.36317,-33.31321 1.85187,-0.0615 3.0096,27.00132 5.48696,26.9526 1.74118,-0.0344 3.41969,-21.43887 6.03589,-21.47217 1.87786,-0.0239 3.24988,19.4273 5.63167,19.36897 1.9999,-0.0496 4.11223,-15.9819 6.11194,-15.91146 1.73812,0.0612 2.54851,12.80205 4.69045,12.81878 1.639,0.0126 3.2701,-10.19562 5.32513,-10.25414 1.48364,-0.0424 2.04745,7.11953 3.61347,7.0802 1.09721,-0.0273 2.04789,-4.54118 3.68954,-4.47601 1.15681,0.0461 1.90465,1.76866 3.04294,1.79043 1.48442,0.0287 2.92859,-0.59181 4.412238,-0.65107 1.62493,-0.0647 3.243432,0.27124 4.86871,0.32549 1.317951,0.0438 3.955791,0 3.955791,0 l 4.29814,-0.041"
             id="path4166-1-8"
             inkscape:connector-curvature="0"
             sodipodi:nodetypes="cssssssssssssaacc" /></g></g></g></g></svg>
