<?xml version="1.0" encoding="UTF-8" standalone="no"?>
<svg
   width="48"
   height="48"
   viewBox="0 0 48 48"
   id="svg2"
   version="1.1"
   sodipodi:docname="ntc_opf_ts.png"
   xmlns:inkscape="http://www.inkscape.org/namespaces/inkscape"
   xmlns:sodipodi="http://sodipodi.sourceforge.net/DTD/sodipodi-0.dtd"
   xmlns="http://www.w3.org/2000/svg"
   xmlns:svg="http://www.w3.org/2000/svg"
   xmlns:rdf="http://www.w3.org/1999/02/22-rdf-syntax-ns#"
   xmlns:cc="http://creativecommons.org/ns#"
   xmlns:dc="http://purl.org/dc/elements/1.1/">
  <sodipodi:namedview
     id="namedview10"
     pagecolor="#ffffff"
     bordercolor="#666666"
     borderopacity="1.0"
     inkscape:showpageshadow="2"
     inkscape:pageopacity="0.0"
     inkscape:pagecheckerboard="0"
     inkscape:deskcolor="#d1d1d1" />
  <metadata
     id="metadata12">
    <rdf:RDF>
      <cc:Work
         rdf:about="">
        <dc:format>image/svg+xml</dc:format>
        <dc:type
           rdf:resource="http://purl.org/dc/dcmitype/StillImage" />
        <dc:title />
      </cc:Work>
    </rdf:RDF>
  </metadata>
  <defs
     id="defs10" />
  <g
     aria-label="λ"
     style="font-style:normal;font-weight:normal;font-size:43.22439194px;line-height:1.25;font-family:sans-serif;letter-spacing:0px;word-spacing:0px;fill:#2a7fff;fill-opacity:1;stroke:none;stroke-width:1.0806098"
     id="text4524-9">
    <path
       d="m 38.914746,39.932853 -0.561917,-0.778039 -1.037386,0.734814 c -1.167058,0.864488 -2.161219,1.296732 -2.550239,1.296732 -0.172897,0 -0.345795,0 -0.994161,-0.821263 -0.432244,-0.518693 -0.864488,-1.556079 -1.556078,-3.025708 L 26.595794,22.254076 c -2.247668,-6.051415 -4.365663,-9.120346 -6.570107,-9.379693 -1.037386,0.950937 -2.636688,2.031547 -3.501176,2.636688 l 0.04322,1.037386 c 0.821264,-0.302571 2.074771,-0.821264 2.463791,-0.821264 1.210283,0 2.723136,1.945098 3.630849,4.452113 l 1.469629,4.019868 c -3.025708,4.668234 -8.817776,15.517557 -10.546752,18.975508 l 1.08061,0.950937 c 0.734815,-0.38902 1.339956,-0.605142 2.377342,-0.950937 2.290892,-6.526883 3.630848,-10.503527 7.607493,-17.549103 l 6.310761,17.160084 c 0.259346,0.734814 0.864488,1.210282 1.599302,1.210282 1.123834,0 2.593464,-0.950936 6.353986,-4.063092 z"
       style="font-style:normal;font-variant:normal;font-weight:normal;font-stretch:normal;font-family:'TeX Gyre Pagella Math';-inkscape-font-specification:'TeX Gyre Pagella Math';fill:#2a7fff;fill-opacity:1;stroke-width:1.0806098"
       id="path828" />
  </g>
  <text
     xml:space="preserve"
     style="font-style:normal;font-weight:normal;font-size:31.0217px;line-height:1.25;font-family:sans-serif;letter-spacing:0px;word-spacing:0px;fill:#216778;fill-opacity:1;stroke:none;stroke-width:0.775543"
     x="-48.97916"
     y="36.47298"
     id="text4524-9-2" />
  <rect
     ry="1.5989817"
     y="38.842392"
     x="4.5681019"
     height="6.8749847"
     width="40.032848"
     id="rect4596"
     style="fill:#002b2c;fill-opacity:1;stroke:#002b2c;stroke-width:0.9416458;stroke-linecap:round;stroke-linejoin:round;stroke-miterlimit:4;stroke-dasharray:none;stroke-opacity:1;paint-order:markers fill stroke" />
  <rect
     ry="1.8084072"
     y="38.914238"
     x="4.8493557"
     height="6.7312937"
     width="29.602238"
     id="rect4596-3"
     style="fill:#2a7fff;stroke:none;stroke-width:0.80117643;stroke-linecap:round;stroke-linejoin:round;stroke-miterlimit:4;stroke-dasharray:none;stroke-opacity:1;paint-order:normal;fill-opacity:1" />
</svg>
