<?xml version="1.0" encoding="UTF-8" standalone="no"?>
<svg
   width="64"
   height="64"
   viewBox="0 0 64 64"
   fill="none"
   version="1.1"
   id="svg1"
   sodipodi:docname="SS_icon3.svg"
   inkscape:version="1.4.2 (f4327f4, 2025-05-13)"
   xmlns:inkscape="http://www.inkscape.org/namespaces/inkscape"
   xmlns:sodipodi="http://sodipodi.sourceforge.net/DTD/sodipodi-0.dtd"
   xmlns="http://www.w3.org/2000/svg"
   xmlns:svg="http://www.w3.org/2000/svg">
  <defs
     id="defs1">
    <inkscape:path-effect
       effect="bspline"
       id="path-effect4"
       is_visible="true"
       lpeversion="1.3"
       weight="33.333333"
       steps="2"
       helper_size="0"
       apply_no_weight="true"
       apply_with_weight="true"
       only_selected="false"
       uniform="false" />
    <inkscape:path-effect
       effect="bspline"
       id="path-effect3"
       is_visible="true"
       lpeversion="1.3"
       weight="33.333333"
       steps="2"
       helper_size="0"
       apply_no_weight="true"
       apply_with_weight="true"
       only_selected="false"
       uniform="false" />
  </defs>
  <sodipodi:namedview
     id="namedview1"
     pagecolor="#ffffff"
     bordercolor="#111111"
     borderopacity="1"
     inkscape:showpageshadow="0"
     inkscape:pageopacity="0"
     inkscape:pagecheckerboard="1"
     inkscape:deskcolor="#d1d1d1"
     showgrid="false"
     inkscape:zoom="15.96"
     inkscape:cx="31.954887"
     inkscape:cy="32.236842"
     inkscape:window-width="2400"
     inkscape:window-height="1261"
     inkscape:window-x="-9"
     inkscape:window-y="-9"
     inkscape:window-maximized="1"
     inkscape:current-layer="svg1" />
  <!-- Wavy line -->
  <!-- Magnifying glass circle -->
  <ellipse
     cx="33.956333"
     cy="22.611423"
     stroke="#000000"
     stroke-width="2"
     fill="none"
     id="circle1"
     rx="12.289075"
     ry="12.352209"
     style="stroke-width:2.5;stroke-dasharray:none;stroke:#f59f0a;stroke-opacity:1" />
  <!-- Magnifying glass handle -->
  <line
     x1="41.635017"
     y1="31.761328"
     x2="51.466278"
     y2="41.643093"
     stroke="#000000"
     stroke-width="2.46412"
     id="line1"
     style="stroke-width:2.5;stroke-dasharray:none;fill:#ff6600;stroke:#f59f0a;stroke-opacity:1" />
  <path
     style="fill:#000000;stroke-width:1.23206"
     d="M 0.7470225,49.608918 7.9710276,39.791069"
     id="path2" />
  <path
     style="fill:none;stroke:#f59f0a;stroke-width:2.0291217;stroke-dasharray:none;stroke-opacity:1"
     d="m 13.081501,41.562743 c 0.855541,-2.290643 1.711082,-4.581285 2.359642,-6.237182 0.64856,-1.655896 1.090121,-2.677006 1.660599,-3.282123 0.570479,-0.605118 1.269825,-0.794212 1.863196,-0.463029 0.59337,0.331184 1.080705,1.182624 1.614164,2.325917 0.533458,1.143293 1.113007,2.578366 1.982359,4.841441 0.869351,2.263075 2.028449,5.354001 3.082066,7.450192 1.053618,2.096191 2.001676,3.197521 2.829635,3.321715 0.82796,0.124193 1.535736,-0.72878 2.110416,-1.679638 0.574679,-0.950859 1.01625,-1.999588 1.54062,-3.420908 0.52437,-1.42132 1.131516,-3.215161 1.628285,-4.51228 0.49677,-1.297118 0.883136,-2.097447 1.426356,-2.481266 0.54322,-0.383819 1.243244,-0.351113 1.781418,0.256056 0.538174,0.60717 0.91444,1.788755 1.254369,2.862536 0.339929,1.073781 0.643503,2.039695 1.125634,2.51934 0.482132,0.479646 1.142776,0.473002 1.749947,0.473002 0.60717,0 1.160805,0.0066 1.60322,0.01 0.442414,0.0033 0.773585,0.0033 1.104762,0.0033"
     id="path4"
     inkscape:path-effect="#path-effect4"
     inkscape:original-d="m 13.081501,41.562743 c 0.855541,-2.290643 1.711082,-4.581285 2.566623,-6.871928 0.441579,-1.02115 0.883139,-2.04226 1.324709,-3.063389 0.699388,-0.189106 1.398734,-0.378201 2.098121,-0.567306 0.487354,0.851473 0.974689,1.702913 1.462034,2.554369 0.579572,1.43513 1.159121,2.870203 1.738681,4.305304 1.159143,3.091049 2.31824,6.181975 3.477361,9.272962 0.948115,1.101395 1.896173,2.202725 2.844287,3.30412 0.707805,-0.853008 1.415581,-1.705981 2.123371,-2.558971 0.441569,-1.048727 0.88314,-2.097456 1.324709,-3.146183 0.607171,-1.793913 1.214317,-3.587754 1.821475,-5.38163 0.386381,-0.800361 0.772747,-1.60069 1.15912,-2.401035 0.700067,0.03271 1.400091,0.06542 2.100158,0.09812 0.376281,1.181632 0.752547,2.363217 1.12882,3.544826 0.303585,0.965953 0.607159,1.931867 0.910738,2.897801 0.660684,-0.0066 1.321328,-0.01329 1.982013,-0.01993 0.553657,0.0066 1.107291,0.01329 1.660936,0.01993 0.331184,0 0.662355,0 0.993532,0"
     transform="matrix(1.2289075,0,0,1.2352209,-5.092383,-5.202716)"
     sodipodi:nodetypes="cccccccccccccccccc" />
</svg>
